# xmcd CD database file
#
# Track frame offsets:
#	150
#	13875
#	26175
#	40725
#	61650
#	77400
#	89700
#	102225
#	118500
#	132975
#	147675
#	163350
#	174600
#	186225
#	200475
#	208500
#
# Disc length: 3050 seconds
#
# Revision: 1
# Processed by: cddbd v1.5.2PL0 Copyright (c) Steve Scherf et al.
# Submitted via: CDex 1.70beta2
#
DISCID=ea0be810
DTITLE=ruzni - Country Folk a Trampska Hitparada
DYEAR=2006
DGENRE=Country
TTITLE0=Blanik - F Nedved
TTITLE1=Dala jsem lasku rekam - V. Martinova
TTITLE2=Nashville I. - J. Zoch
TTITLE3=Pry chlapi nebreci - J. Smolik
TTITLE4=Vilem pece housky - N. Urbankova
TTITLE5=Trpaslici svatba - J. Vancura
TTITLE6=Tri krize - Hop Trop
TTITLE7=Kdybych ja byl kovarem - P. Spaleny
TTITLE8=Hej koci - V. Marsalek a sbor
TTITLE9=Jak malo - Prazce
TTITLE10=Velka vlakova loupez - Pacifik
TTITLE11=Dobra zprava - Stranici
TTITLE12=Rvac, hrac, desperat - J. Zoch
TTITLE13=Nadrazi - Smson a jeho parta
TTITLE14=Hej barmane - Minaret
TTITLE15=Smog - Auris
EXTD=YEAR: 2006
EXTT0=
EXTT1=
EXTT2=
EXTT3=
EXTT4=
EXTT5=
EXTT6=
EXTT7=
EXTT8=
EXTT9=
EXTT10=
EXTT11=
EXTT12=
EXTT13=
EXTT14=
EXTT15=
PLAYORDER=
